<?xml version="1.0" standalone="no"?>
<!DOCTYPE svg PUBLIC "-//W3C//DTD SVG 20010904//EN"
 "http://www.w3.org/TR/2001/REC-SVG-20010904/DTD/svg10.dtd">
<svg version="1.0" xmlns="http://www.w3.org/2000/svg"
 width="300.000000pt" height="60.000000pt" viewBox="0 0 300.000000 60.000000"
 preserveAspectRatio="xMidYMid meet">
<metadata>
Created by potrace 1.10, written by Peter Selinger 2001-2011
</metadata>
<g transform="translate(0.000000,60.000000) scale(0.100000,-0.100000)"
fill="#000000" stroke="none">
<path d="M2735 575 c30 -13 30 -13 5 -15 -32 -2 -110 -30 -136 -50 -12 -8 -28
-28 -37 -45 -9 -16 -27 -43 -41 -60 l-24 -30 -6 25 c-2 14 -8 43 -11 65 l-7
39 -18 -23 c-13 -18 -19 -20 -23 -10 -3 9 -10 2 -17 -19 -9 -25 -15 -30 -21
-20 -13 19 -11 -59 1 -83 6 -10 21 -19 33 -19 33 0 48 -13 37 -30 -6 -8 -10
-32 -10 -52 0 -42 -2 -43 -33 -27 -21 11 -21 11 -5 -7 15 -18 15 -20 -3 -43
-20 -24 -25 -51 -10 -51 5 0 12 12 16 28 l8 27 7 -25 c5 -14 8 -18 9 -8 1 12
7 15 24 10 21 -5 21 -5 4 15 -16 19 -16 25 -3 83 8 35 13 67 10 71 -8 13 7 36
38 59 l32 23 -21 -34 c-11 -19 -24 -45 -27 -59 -4 -14 4 -5 16 19 13 25 29 47
37 49 8 3 3 -12 -13 -40 -14 -25 -26 -49 -26 -54 1 -5 8 4 16 19 8 15 19 25
24 22 6 -4 7 1 3 11 -5 14 -2 16 18 10 13 -4 38 -11 54 -15 21 -4 31 -14 33
-29 5 -33 35 -44 90 -35 26 5 59 7 75 5 22 -3 27 -8 27 -32 0 -41 -10 -65 -21
-48 -7 10 -9 9 -9 -4 0 -25 -48 -77 -87 -93 -40 -17 -97 -20 -88 -5 4 6 -5 7
-24 4 -23 -5 -35 -1 -56 20 -14 14 -23 31 -20 37 4 5 1 17 -6 25 -8 9 -10 32
-6 67 4 34 3 46 -3 36 -13 -22 -13 -77 -1 -124 13 -51 8 -54 -18 -12 -14 23
-21 52 -22 88 -1 41 -3 48 -8 29 -5 -14 -6 -34 -4 -45 2 -11 5 -40 8 -64 3
-39 2 -43 -16 -38 -12 3 -19 0 -19 -9 0 -17 -12 -18 -30 -1 -11 9 -11 8 0 -7
14 -18 13 -19 -10 -13 -22 5 -23 5 -8 -7 10 -7 15 -16 11 -19 -3 -4 -1 -7 5
-7 12 0 42 28 42 40 0 20 48 18 93 -3 91 -44 195 -31 259 33 21 21 38 47 38
59 0 11 5 21 10 21 6 0 10 -3 10 -8 0 -4 9 -13 19 -19 16 -10 24 -9 45 8 15
11 24 24 21 29 -3 5 -1 11 5 15 5 3 10 11 10 16 0 6 -4 8 -9 5 -5 -4 -7 4 -3
16 l5 22 -35 -22 c-42 -26 -66 -28 -64 -6 2 26 -57 42 -114 30 -86 -17 -102
12 -30 53 33 19 43 20 62 10 21 -11 22 -11 10 4 -20 24 -10 67 20 90 23 17 32
19 52 9 55 -25 74 -105 23 -96 -22 4 -22 4 1 -8 19 -9 25 -9 33 3 17 27 9 57
-23 86 -60 53 -97 96 -92 105 4 5 16 14 28 19 16 7 11 8 -20 4 -30 -3 -45 -1
-54 10 -7 8 -24 15 -39 15 l-26 -1 30 -14z m49 -45 c6 0 19 -13 29 -29 16 -28
16 -29 -5 -34 -12 -4 -23 -5 -23 -4 -1 1 -11 15 -23 31 -18 23 -20 32 -10 44
8 9 14 10 16 3 2 -6 9 -11 16 -11z m-61 -30 c85 -67 24 -179 -81 -150 -57 15
-112 90 -67 90 8 0 15 8 15 17 0 9 10 27 22 40 27 29 76 30 111 3z m-246 -67
c-3 -10 -5 -4 -5 12 0 17 2 24 5 18 2 -7 2 -21 0 -30z m-13 -71 c-8 -2 -11 -9
-7 -15 4 -7 -4 -5 -17 4 -14 9 -26 25 -27 35 -2 15 -1 15 9 -3 6 -13 15 -23
21 -23 5 0 4 7 -3 15 -8 9 -10 25 -5 42 l8 28 18 -40 c15 -34 16 -40 3 -43z
m443 -157 c0 -8 -4 -12 -9 -9 -5 3 -6 10 -3 15 9 13 12 11 12 -6z"/>
<path d="M2650 455 c-9 -10 -9 -15 -1 -15 6 0 11 -7 11 -15 0 -19 24 -20 39
-1 9 11 8 14 -5 12 -23 -2 -29 21 -7 27 15 4 14 5 -3 6 -12 0 -27 -6 -34 -14z"/>
<path d="M433 532 c-7 -4 -32 -103 -56 -220 -39 -193 -41 -212 -26 -217 10 -3
28 -3 42 0 21 6 26 15 37 78 14 82 22 101 58 140 28 29 59 35 68 13 3 -8 -4
-61 -15 -117 -22 -106 -20 -119 19 -119 31 0 39 18 62 127 26 127 21 159 -26
182 -36 17 -97 1 -122 -32 -15 -19 -16 -20 -9 -2 3 11 13 51 20 90 10 53 11
71 2 77 -15 10 -39 10 -54 0z m27 -47 c0 -7 -5 -36 -11 -64 -7 -35 -7 -56 0
-69 8 -16 5 -29 -13 -64 -13 -23 -27 -61 -29 -83 -3 -22 -9 -48 -12 -58 -10
-25 -28 -21 -22 6 3 12 20 95 38 185 18 89 36 162 41 162 4 0 8 -7 8 -15z
m148 -144 c5 -33 -28 -200 -41 -208 -6 -4 -7 6 -4 28 4 19 9 64 13 102 6 58 4
70 -12 88 -19 21 -19 21 11 17 23 -2 31 -9 33 -27z"/>
<path d="M1240 506 c-21 -26 -8 -61 23 -64 37 -4 57 13 57 49 0 26 -3 29 -34
29 -18 0 -39 -7 -46 -14z m45 -26 c-3 -5 -10 -10 -16 -10 -5 0 -9 5 -9 10 0 6
7 10 16 10 8 0 12 -4 9 -10z"/>
<path d="M151 493 c-41 -21 -71 -67 -71 -111 0 -48 14 -67 75 -107 59 -38 71
-68 38 -97 -32 -28 -60 -30 -108 -9 -44 19 -45 19 -55 1 -18 -33 -11 -51 25
-66 80 -33 178 -9 223 56 42 63 24 124 -49 170 -66 40 -77 63 -45 95 29 29 43
31 92 10 34 -14 35 -14 45 12 14 39 -8 56 -78 60 -41 3 -68 -1 -92 -14z m10
-49 c-40 -51 -23 -87 78 -162 42 -32 43 -77 2 -121 -38 -40 -61 -40 -27 0 43
51 31 90 -44 139 -48 32 -60 49 -60 84 1 34 14 56 45 74 28 16 29 15 6 -14z"/>
<path d="M1418 468 c-9 -7 -18 -24 -20 -38 -2 -15 -11 -26 -23 -29 -24 -4 -35
-19 -35 -49 0 -19 4 -22 20 -17 23 7 23 9 5 -75 -21 -96 -19 -136 7 -154 45
-32 109 -16 123 32 6 20 3 22 -29 22 -41 0 -41 0 -25 86 16 92 16 91 50 86 34
-5 49 8 49 46 0 19 -5 22 -35 22 -19 0 -35 1 -35 3 0 1 4 16 9 34 7 25 6 33
-6 37 -23 9 -38 7 -55 -6z m32 -51 c0 -13 5 -28 12 -35 8 -8 6 -16 -10 -29
-16 -13 -27 -41 -39 -101 -15 -78 -15 -83 2 -102 21 -24 15 -35 -14 -25 -25 7
-26 26 -9 126 8 50 8 76 0 93 -9 19 -8 25 4 30 8 3 20 19 25 36 13 36 29 40
29 7z"/>
<path d="M1643 473 c-7 -2 -15 -20 -19 -39 -4 -24 -12 -34 -25 -34 -22 0 -43
-35 -35 -57 4 -8 13 -13 21 -9 19 7 19 -9 0 -99 -24 -110 -7 -145 69 -145 40
0 66 21 66 54 0 19 -4 22 -29 18 -16 -2 -31 0 -33 5 -3 4 2 44 11 88 l16 80
32 -3 c23 -3 34 2 42 17 20 37 14 51 -25 51 -36 0 -36 0 -30 34 5 26 3 35 -10
40 -18 7 -33 7 -51 -1z m34 -70 c9 -31 8 -39 -7 -55 -17 -19 -40 -108 -40
-157 0 -15 7 -37 16 -49 12 -18 12 -22 1 -22 -7 0 -22 6 -32 14 -18 13 -18 16
-1 106 17 83 17 94 3 108 -14 14 -13 17 9 34 13 11 24 28 24 39 0 31 14 22 27
-18z"/>
<path d="M1897 396 c-77 -28 -117 -95 -117 -192 1 -86 30 -114 118 -114 69 0
109 16 117 47 8 34 2 37 -36 24 -72 -25 -134 -4 -127 43 2 17 11 22 43 24 75
4 104 13 135 38 85 72 -17 173 -133 130z m133 -70 c0 -13 -7 -29 -16 -37 -13
-11 -14 -9 -9 13 4 15 1 36 -5 48 -11 20 -10 21 9 10 12 -6 21 -21 21 -34z
m-51 0 c5 -27 -25 -46 -71 -46 -44 0 -48 11 -13 46 30 30 78 30 84 0z m-125
-10 c-11 -18 -13 -30 -6 -42 7 -12 6 -22 -4 -32 -19 -18 -18 -62 2 -90 21 -30
14 -36 -15 -15 -21 14 -23 22 -19 82 2 46 10 75 23 93 25 34 41 37 19 4z"/>
<path d="M2233 375 l-34 -34 6 30 c7 30 6 30 -26 27 l-34 -3 -29 -143 c-32
-155 -30 -169 21 -158 28 7 31 11 43 79 19 107 51 157 102 157 21 0 29 6 34
25 16 63 -29 74 -83 20z m-52 -93 c-10 -20 -22 -58 -26 -83 -7 -46 -20 -77
-29 -69 -4 4 20 139 40 220 l6 25 14 -27 c13 -25 13 -32 -5 -66z"/>
<path d="M707 393 c-10 -16 23 -287 35 -295 17 -10 56 -10 76 1 9 5 33 48 52
95 19 47 38 86 43 86 4 0 8 -34 8 -75 2 -97 1 -94 19 -105 26 -17 60 -11 84
15 38 41 136 241 136 278 0 4 -18 7 -39 7 -38 0 -40 -2 -55 -47 -20 -61 -69
-172 -76 -173 -3 0 -6 26 -7 58 -2 31 -5 81 -8 110 -6 51 -7 52 -41 52 -33 0
-35 -2 -74 -87 -23 -48 -43 -98 -46 -110 -14 -53 -22 -26 -23 73 -1 59 -4 110
-7 115 -6 11 -71 12 -77 2z m53 -60 c1 -65 7 -129 15 -152 5 -17 13 -22 31
-18 20 3 22 2 13 -14 -9 -19 -53 -26 -62 -11 -3 4 -8 58 -12 120 -6 81 -4 112
4 112 6 0 11 -17 11 -37z m189 -20 c3 -109 17 -153 47 -153 14 0 58 80 89 163
10 26 22 47 26 47 5 0 9 -2 9 -5 0 -15 -47 -120 -78 -172 -30 -52 -41 -63 -63
-63 -25 0 -26 2 -32 72 -7 80 -25 111 -51 88 -20 -15 -20 -11 -2 31 30 71 52
67 55 -8z"/>
<path d="M1215 378 c-3 -13 -16 -79 -30 -147 -26 -129 -25 -141 15 -141 31 0
39 18 64 140 14 69 28 135 31 148 5 20 2 22 -35 22 -33 0 -41 -4 -45 -22z m24
-132 c-13 -64 -27 -116 -31 -116 -4 0 -8 8 -8 18 0 22 39 202 46 214 15 25 13
-10 -7 -116z"/>
<path d="M2821 391 c-10 -7 -10 -10 -1 -16 6 -4 16 -3 22 3 13 13 -4 23 -21
13z"/>
<path d="M2825 330 c-36 -6 -38 -7 -15 -14 14 -4 36 -5 49 -4 19 2 26 -3 31
-21 3 -14 11 -26 18 -29 16 -5 15 38 -2 61 -14 18 -17 18 -81 7z"/>
<path d="M2742 220 c0 -14 2 -19 5 -12 2 6 2 18 0 25 -3 6 -5 1 -5 -13z"/>
<path d="M2344 201 c20 -22 51 -27 76 -11 11 7 7 10 -18 10 -18 0 -43 5 -55
11 -22 12 -22 12 -3 -10z"/>
<path d="M2645 151 c-3 -5 -2 -12 3 -15 5 -3 9 1 9 9 0 17 -3 19 -12 6z"/>
<path d="M2585 51 c3 -5 -3 -12 -12 -14 -17 -4 -17 -5 0 -6 12 -1 16 -6 11
-14 -4 -6 2 -4 14 7 23 20 21 36 -4 36 -8 0 -13 -4 -9 -9z"/>
</g>
</svg>
